<?xml version="1.0" encoding="UTF-8" standalone="no"?>
<!-- Generator: Adobe Illustrator 25.0.1, SVG Export Plug-In . SVG Version: 6.00 Build 0)  -->
<svg version="1.0" id="svg8" inkscape:export-filename="/home/nestor/Pictures/Fediversal/Logo_penta_connectat-imbrincat_retallats-color-512x.png" inkscape:version="1.3 (1:1.3+202307231459+0e150ed6c4)" sodipodi:docname="Fediverse.svg" x="0px" y="0px" viewBox="0 0 491.10002 491.19999" xml:space="preserve" width="491.10004" height="491.20001" xmlns:inkscape="http://www.inkscape.org/namespaces/inkscape" xmlns:sodipodi="http://sodipodi.sourceforge.net/DTD/sodipodi-0.dtd" xmlns="http://www.w3.org/2000/svg" xmlns:svg="http://www.w3.org/2000/svg"><defs id="defs1"/>
<style type="text/css" id="style1">
	.st0{fill:#A730B8;}
	.st1{fill:#5496BE;}
	.st2{fill:#CE3D1A;}
	.st3{fill:#D0188F;}
	.st4{fill:#5B36E9;}
	.st5{fill:#30B873;}
	.st6{fill:#EBE305;}
	.st7{fill:#F47601;}
	.st8{fill:#57C115;}
	.st9{fill:#DBB210;}
	.st10{fill:#FFCA00;fill-opacity:0.996;}
	.st11{fill:#64FF00;fill-opacity:0.996;}
	.st12{fill:#00A3FF;fill-opacity:0.996;}
	.st13{fill:#9500FF;fill-opacity:0.996;}
	.st14{fill:#FF0000;fill-opacity:0.996;}
</style>
<sodipodi:namedview bordercolor="#666666" borderopacity="1.0" fit-margin-bottom="5" fit-margin-left="5" fit-margin-right="5" fit-margin-top="5" id="base" inkscape:current-layer="layer2" inkscape:cx="-373.91941" inkscape:cy="351.10735" inkscape:document-units="mm" inkscape:pageopacity="0.0" inkscape:pageshadow="2" inkscape:snap-global="false" inkscape:snap-midpoints="true" inkscape:snap-smooth-nodes="true" inkscape:window-height="1029" inkscape:window-maximized="1" inkscape:window-width="1920" inkscape:window-x="0" inkscape:window-y="865" inkscape:zoom="0.50411932" pagecolor="#ffffff" showgrid="false" inkscape:showpageshadow="0" inkscape:pagecheckerboard="0" inkscape:deskcolor="#d1d1d1">
	</sodipodi:namedview>
<g id="layer2" transform="translate(-157.3,-80.599998)" inkscape:groupmode="layer" inkscape:label="Linies">
	<path id="path9722" inkscape:connector-curvature="0" class="st0" d="m 250.1,263.8 c -4.9,9.4 -12.6,17.1 -22.1,22 l 121.3,121.8 29.2,-14.8 z m 160,160.6 -29.2,14.8 61.5,61.7 c 4.9,-9.4 12.6,-17.1 22.1,-22 z"/>
	<path id="path9729" inkscape:connector-curvature="0" class="st1" d="m 550.5,312 -68.7,34.8 5.1,32.4 77.7,-39.4 c -7.5,-7.6 -12.4,-17.3 -14.1,-27.8 z m -108.6,55 -162.4,82.3 c 7.5,7.6 12.4,17.3 14.1,27.8 L 447,399.4 Z"/>
	<path id="path9713" inkscape:connector-curvature="0" class="st2" d="m 389.7,164.3 -78.4,153 23.1,23.2 83,-162 C 407,176.7 397.3,171.7 389.7,164.3 Z M 291,357 251.3,434.5 c 10.5,1.8 20.2,6.7 27.7,14.2 l 35.1,-68.5 z"/>
	<path id="path1015" inkscape:connector-curvature="0" class="st3" d="m 227.3,286.1 c -8,4 -16.9,5.9 -25.8,5.4 -1.7,-0.1 -3.3,-0.3 -5,-0.5 l 23.2,148.2 c 8,-4 16.9,-5.9 25.8,-5.4 1.7,0.1 3.3,0.3 5,0.5 z"/>
	<path id="path1674" inkscape:connector-curvature="0" class="st4" d="m 293.8,477.8 c 0.5,3.4 0.7,6.9 0.5,10.4 -0.4,7.1 -2.3,14 -5.5,20.4 L 437,532.4 c -0.5,-3.4 -0.7,-6.9 -0.5,-10.4 0.4,-7.1 2.3,-14 5.5,-20.4 z"/>
	<path id="path1676" inkscape:connector-curvature="0" class="st5" d="m 565.1,340.3 -68.4,133.6 c 10.5,1.8 20.2,6.7 27.7,14.2 l 68.4,-133.6 c -10.4,-1.7 -20.1,-6.7 -27.7,-14.2 z"/>
	<path id="path1678" inkscape:connector-curvature="0" class="st6" d="m 471.8,151.4 c -4.9,9.4 -12.6,17.1 -22.1,22 l 105.9,106.4 c 4.9,-9.4 12.6,-17.1 22.1,-22 z"/>
	<path id="path1680" inkscape:connector-curvature="0" class="st7" d="m 375.1,135.9 -133.9,67.9 c 7.5,7.6 12.4,17.3 14.1,27.8 l 133.9,-67.9 c -7.5,-7.6 -12.4,-17.3 -14.1,-27.8 z"/>
	<path id="path9758" inkscape:connector-curvature="0" class="st8" d="m 449.5,173.6 c -8.1,4.1 -17.1,6.1 -26.2,5.6 -1.5,-0.1 -3,-0.3 -4.5,-0.5 l 11.9,76 32.4,5.2 z m -12,125.2 28.1,179.6 c 7.9,-3.9 16.7,-5.7 25.4,-5.2 1.8,0.1 3.6,0.3 5.4,0.6 L 469.8,304 Z"/>
	<path id="path9760" inkscape:connector-curvature="0" class="st9" d="m 255.4,232.2 c 0.6,3.5 0.7,7 0.6,10.6 -0.4,7 -2.2,13.9 -5.4,20.2 l 76,12.2 14.9,-29.2 z m 130.3,20.9 -14.9,29.2 179.6,28.9 c -0.5,-3.4 -0.7,-6.9 -0.5,-10.3 0.4,-7.1 2.3,-14.1 5.5,-20.5 z"/>
</g>
<g id="layer3" transform="translate(-157.3,-80.599998)" inkscape:groupmode="layer" inkscape:label="Nodes">
	<circle id="path817" class="st10" cx="426" cy="127.6" r="47"/>
	<circle id="path819" class="st11" cx="601.40002" cy="303.60001" r="47"/>
	<circle id="path823" class="st12" cx="488.10001" cy="524.79999" r="47"/>
	<circle id="path825" class="st13" cx="242.7" cy="485.39999" r="47"/>
	<circle id="path827" class="st14" cx="204.3" cy="239.89999" r="47"/>
</g>
</svg>